<?xml version="1.0" encoding="UTF-8"?>
<svg version="1.1" viewBox="0 0 288 182.95" width="110px" height="70px" xml:space="preserve" xmlns="http://www.w3.org/2000/svg" xmlns:cc="http://creativecommons.org/ns#" xmlns:dc="http://purl.org/dc/elements/1.1/" xmlns:rdf="http://www.w3.org/1999/02/22-rdf-syntax-ns#">
	<metadata>
		<rdf:RDF>
			<cc:Work rdf:about="">
				<dc:format>image/svg+xml</dc:format>
				<dc:type rdf:resource="http://purl.org/dc/dcmitype/StillImage"/>
			</cc:Work>
		</rdf:RDF>
	</metadata>
	<defs>
		<clipPath id="a">
			<path d="m0 792h612v-792h-612z"/>
		</clipPath>
	</defs>
	<g transform="matrix(1.3333 0 0 -1.3333 -265.22 618.85)">
		<path d="m414.92 326.93h-216v137.21h216z" fill="#fff"/>
		<path d="m202.51 349.22h208.8v-18.72h-208.8z" fill="#f7b600"/>
		<path d="m202.51 441.82h208.8v18.72h-208.8z" fill="#1a1f71"/>
		<g clip-path="url(#a)">
			<g transform="translate(305.11 421.19)">
				<path d="m0 0-11.006-51.455h-13.312l11.007 51.455zm56.004-33.226 7.008 19.324 4.031-19.324zm14.859-18.229h12.309l-10.754 51.455h-11.355c-2.559 0-4.715-1.484-5.67-3.772l-19.975-47.683h13.98l2.776 7.684h17.076zm-34.752 16.799c0.059 13.579-18.771 14.332-18.646 20.399 0.041 1.844 1.799 3.808 5.644 4.31 1.907 0.246 7.166 0.444 13.129-2.303l2.332 10.916c-3.203 1.158-7.324 2.274-12.451 2.274-13.16 0-22.418-6.99-22.492-17.008-0.084-7.408 6.613-11.538 11.648-14.005 5.192-2.522 6.932-4.14 6.907-6.393-0.036-3.452-4.141-4.98-7.961-5.038-6.698-0.104-10.578 1.81-13.672 3.252l-2.416-11.28c3.115-1.426 8.855-2.667 14.799-2.731 13.99 0 23.138 6.909 23.179 17.607m-55.132 34.656-21.569-51.455h-14.07l-10.615 41.065c-0.643 2.525-1.204 3.453-3.161 4.52-3.201 1.739-8.486 3.365-13.132 4.377l0.314 1.493h22.652c2.885 0 5.481-1.92 6.141-5.243l5.607-29.778 13.848 35.021z" fill="#1a1f71"/>
			</g>
		</g>
	</g>
</svg>
